<svg width="12" height="7" viewBox="0 0 12 7" fill="none" xmlns="http://www.w3.org/2000/svg">
<path fill-rule="evenodd" clip-rule="evenodd" d="M6.37766 6.70875C6.20516 6.90375 5.97781 7.00075 5.74958 6.99977C5.52223 7.00075 5.29489 6.90375 5.12239 6.70875C5.11885 6.70475 5.08435 6.66275 5.08081 6.65875L0.70108 1.70575C0.356964 1.31675 0.356964 0.68075 0.70108 0.29175C1.04519 -0.09725 1.60781 -0.09725 1.95193 0.29175L5.74958 4.58575L9.54812 0.29175C9.89223 -0.09725 10.4548 -0.09725 10.799 0.29175C11.1431 0.68075 11.1431 1.31675 10.799 1.70575L6.42543 6.64875C6.42189 6.65275 6.38119 6.70475 6.37766 6.70875Z" fill="#B2B5B2"/>
</svg>