<svg width="1280" height="579" viewBox="0 0 1280 579" fill="none" xmlns="http://www.w3.org/2000/svg">
<g clip-path="url(#clip0_92_386)" filter="url(#filter0_dd_92_386)">
<rect width="1248" height="547" transform="translate(16 8)" fill="url(#paint0_linear_92_386)"/>
<path opacity="0.25" d="M151.049 -118.99C171.159 -118.602 191.534 -113.25 208.124 -101.874C224.721 -90.4938 237.983 -73.7605 244.686 -54.7836C251.089 -36.6589 246.536 -16.9893 244.875 2.16151C243.403 19.1212 242.008 35.9941 235.447 51.7021C228.947 67.2672 219.225 81.1534 207.022 92.797C194.703 104.551 180.773 115.323 164.292 119.595C148.014 123.815 131.366 117.227 114.555 116.765C95.426 116.24 75.4413 124.246 57.8653 116.675C39.945 108.955 26.9648 92.2585 17.7404 75.0616C8.60737 58.0351 7.67873 38.3403 5.54572 19.1363C3.348 -0.650325 -0.888962 -20.8136 4.97842 -39.8372C10.988 -59.322 22.426 -77.9494 39.1055 -89.6738C55.3935 -101.123 77.0477 -98.9902 96.3065 -104.034C114.838 -108.887 131.896 -119.36 151.049 -118.99Z" fill="#3E6957"/>
<path opacity="0.25" d="M576.918 500.607C570.898 537.498 542.811 564.963 524.607 597.598C505.621 631.634 501.815 679.227 467.26 697.195C432.639 715.196 391.64 688.782 352.669 686.998C314.775 685.263 276.677 699.187 240.808 686.827C201.144 673.159 157.059 652.683 140.77 613.981C124.419 575.135 153.695 532.823 158.354 490.929C162.538 453.305 147.868 412.367 166.832 379.617C185.858 346.758 225.43 333.688 259.303 316.587C292.2 299.978 325.506 286.154 362 281.084C403.292 275.348 447.946 265.858 484.862 285.251C522.154 304.842 542.769 345.988 559.339 384.751C574.956 421.285 583.317 461.389 576.918 500.607Z" fill="#3E6957"/>
<path opacity="0.25" d="M794.707 228.985C770.666 230.635 749.295 217.047 726.134 210.422C701.977 203.514 671.545 208.128 655.183 189.082C638.791 170.001 649.338 140.381 644.724 115.658C640.237 91.6189 625.892 69.7551 628.373 45.4229C631.115 18.517 637.481 -12.1658 659.376 -28.0843C681.352 -44.0624 712.216 -31.9125 739.197 -35.1524C763.428 -38.0621 786.964 -53.2928 810.31 -46.2091C833.733 -39.1018 847.76 -16.187 863.477 2.55731C878.742 20.7618 892.319 39.6323 900.871 61.7921C910.546 86.865 923.073 113.496 916.332 139.52C909.523 165.809 886.73 184.802 864.838 200.906C844.205 216.083 820.264 227.232 794.707 228.985Z" fill="#3E6957"/>
<g opacity="0.2">
<g opacity="0.1">
<path d="M736.77 508.418C692.428 508.418 651.6 504.867 617.212 496.408C520.331 472.578 452.394 398.339 386.673 326.544C289.792 220.685 198.28 120.707 25.3618 187.996C-236.088 289.73 -515.001 326.277 -517.79 326.64L-518 325.055C-515.211 324.692 -236.49 288.184 24.7504 186.506C198.7 118.817 290.557 219.196 387.819 325.475C453.368 397.098 521.152 471.165 617.556 494.88C740.438 525.107 946.465 492.36 1097.66 459.575C1261.54 424.021 1398.07 380.772 1399.44 380.333L1399.92 381.861C1398.56 382.3 1261.94 425.568 1098 461.141C988.897 484.799 851.227 508.437 736.751 508.437L736.77 508.418Z" fill="#F0EBDE"/>
</g>
<g style="mix-blend-mode:hard-light" opacity="0.13">
<path d="M719.538 506.146C685.627 506.146 654.218 503.74 626.402 498.241C530.342 479.261 461.431 409.834 394.774 342.679C330.066 277.491 268.949 215.912 185.327 197.161C136.992 186.144 86.2112 190.44 30.1002 210.279C-229.191 301.97 -507.53 327.423 -510.3 327.671L-510.453 325.952C-507.683 325.704 -229.554 300.271 29.5271 208.637C85.9629 188.683 137.049 184.368 185.709 195.462C269.828 214.327 331.117 276.078 395.997 341.457C462.463 408.421 531.183 477.657 626.726 496.542C792.041 529.212 1086.43 452.682 1262.31 406.951C1354.55 382.968 1395.41 372.676 1397.67 379.894L1396.02 380.41C1394.17 374.452 1333.28 390.281 1262.75 408.612C1116.27 446.686 887.623 506.127 719.519 506.127L719.538 506.146Z" fill="#F0EBDE"/>
</g>
<g style="mix-blend-mode:hard-light" opacity="0.17">
<path d="M703.471 504.6C679.322 504.6 656.588 503.187 635.63 500.055C540.277 485.792 470.201 421.1 402.416 358.547C339.542 300.519 274.547 240.525 190.104 222.347C140.737 211.711 89.9562 215.053 34.8768 232.562C-222.198 314.267 -500.021 328.588 -502.811 328.721L-502.906 326.869C-500.136 326.736 -222.542 312.415 34.3037 230.786C89.6887 213.181 140.775 209.821 190.486 220.533C275.407 238.825 340.612 298.991 403.658 357.172C471.232 419.534 541.118 484.035 635.897 498.203C781.667 520.009 1016.58 458.43 1188.1 413.481C1309.23 381.727 1389.24 360.762 1394.88 378.959L1393.12 379.512C1388 362.996 1300 386.081 1188.58 415.276C1041.51 453.828 847.827 504.6 703.471 504.6V504.6Z" fill="#F0EBDE"/>
</g>
<g style="mix-blend-mode:hard-light" opacity="0.2">
<path d="M689.676 503.988C674.086 503.988 659.108 503.301 644.856 501.85C550.286 492.188 478.93 432.194 409.942 374.166C346.094 320.473 280.067 264.946 194.898 247.513C144.518 237.202 93.7564 239.589 39.6705 254.826C-215.131 326.564 -492.515 329.714 -495.285 329.733V327.767C-492.534 327.747 -215.399 324.597 39.1355 252.917C93.5271 237.603 144.614 235.197 195.299 245.584C280.965 263.113 347.183 318.811 411.222 372.657C480 430.494 551.108 490.279 645.085 499.883C778.551 513.517 977.338 458.811 1137.05 414.856C1279.62 375.617 1382.59 347.281 1392.12 378.004L1390.23 378.577C1381.27 349.668 1273.73 379.264 1137.57 416.746C994.704 456.062 820.62 503.969 689.695 503.969L689.676 503.988Z" fill="#F0EBDE"/>
</g>
<g style="mix-blend-mode:hard-light" opacity="0.23">
<path d="M677.966 504.294C669.827 504.294 661.88 504.084 654.085 503.664C560.223 498.508 490.681 445.578 417.051 389.575C352.304 340.311 285.361 289.367 199.637 272.717C148.112 262.712 97.3307 264.144 44.3911 277.109C-208.08 338.936 -485.081 330.86 -487.852 330.783L-487.775 328.683C-485.005 328.778 -208.29 336.836 43.8944 275.066C97.1397 262.024 148.226 260.573 200.039 270.655C286.24 287.401 353.374 338.478 418.312 387.894C491.674 443.726 560.968 496.446 654.181 501.563C778.84 508.437 949.274 458.181 1099.63 413.863C1253.75 368.437 1375.49 332.54 1389.3 377.068L1387.29 377.679C1374.09 335.137 1247.18 372.562 1100.22 415.868C959.075 457.474 800.256 504.275 677.928 504.294H677.966Z" fill="#F0EBDE"/>
</g>
<g style="mix-blend-mode:hard-light" opacity="0.27">
<path d="M638.705 506.852C554.968 506.852 487.872 458.276 417.203 407.103C353.412 360.914 287.462 313.159 204.432 297.884C151.55 288.165 100.769 288.642 49.1669 299.373C-200.916 351.367 -477.574 332.005 -480.344 331.795L-480.191 329.58C-477.421 329.79 -201.069 349.133 48.7084 297.196C100.597 286.408 151.665 285.911 204.833 295.688C288.36 311.04 354.52 358.947 418.502 405.289C495.648 461.14 568.533 513.879 663.217 503.224C763.46 491.94 889.094 453.942 1010.6 417.204C1201.29 359.539 1365.97 309.741 1386.55 376.094L1384.43 376.743C1364.5 312.51 1192.92 364.389 1011.25 419.324C889.648 456.1 763.919 494.116 663.465 505.42C655.04 506.375 646.786 506.814 638.705 506.814V506.852Z" fill="#F0EBDE"/>
</g>
<g style="mix-blend-mode:hard-light" opacity="0.3">
<path d="M635.476 510.537C557.815 510.537 492.056 467.728 422.973 422.761C358.57 380.829 291.971 337.485 209.189 323.107C153.919 313.503 104.571 313.063 53.8857 321.694C-193.752 363.912 -470.142 333.17 -472.912 332.864L-472.645 330.535C-469.894 330.859 -193.828 361.544 53.4845 319.384C104.437 310.696 154.033 311.154 209.571 320.797C292.811 335.27 359.621 378.748 424.215 420.813C503.672 472.54 578.716 521.402 672.291 504.981C762.772 489.113 871.842 452.643 977.32 417.395C1140.25 362.938 1294.14 311.479 1356.99 343.691C1370.36 350.546 1379.36 361.162 1383.74 375.216L1381.5 375.903C1377.28 362.27 1368.91 352.417 1355.94 345.772C1293.98 314.018 1140.53 365.306 978.084 419.61C872.53 454.896 763.364 491.386 672.712 507.291C659.969 509.525 647.57 510.556 635.457 510.576L635.476 510.537Z" fill="#F0EBDE"/>
</g>
<g style="mix-blend-mode:hard-light" opacity="0.33">
<path d="M658.537 510.06C576.29 510.06 507.111 473.132 434.207 434.217C367.932 398.836 299.403 362.27 213.966 348.274C174.801 341.858 121.766 335.576 58.6244 343.958C-186.529 376.495 -462.671 334.316 -465.441 333.877L-465.059 331.433C-462.308 331.853 -186.491 373.994 58.2996 341.514C121.766 333.094 175.03 339.414 214.348 345.849C300.167 359.902 368.888 396.582 435.353 432.06C514.696 474.411 589.644 514.395 681.596 506.623C790.322 497.439 920.369 448.08 1035.09 404.526C1172.4 352.417 1290.97 307.393 1349.01 335.671C1364.63 343.29 1375.39 356.255 1380.97 374.242L1378.62 374.968C1373.17 357.42 1363.14 345.295 1347.94 337.886C1290.87 310.066 1172.74 354.919 1035.99 406.817C921.114 450.429 790.895 499.845 681.825 509.067C673.954 509.736 666.179 510.06 658.556 510.06H658.537Z" fill="#F0EBDE"/>
</g>
<g style="mix-blend-mode:hard-light" opacity="0.37">
<path d="M654.351 513.249C577.072 513.249 509.04 481.762 437.53 448.672C371.408 418.064 303.032 386.424 218.741 373.459C175.125 366.738 122.567 360.647 63.3612 366.222C-179.271 389.136 -455.222 335.442 -457.973 334.888L-457.476 332.349C-454.725 332.884 -179.118 386.52 63.1128 363.645C122.605 358.031 175.354 364.16 219.123 370.9C303.777 383.942 372.325 415.658 438.619 446.323C520.866 484.378 598.546 520.333 690.727 508.304C796.224 494.517 917.139 444.356 1023.82 400.096C1159.12 343.958 1275.97 295.478 1338.5 324.768C1357.89 333.857 1370.86 349.725 1378.18 373.287L1375.71 374.051C1368.63 351.214 1356.09 335.862 1337.41 327.098C1275.91 298.285 1159.56 346.555 1024.83 402.463C917.999 446.781 796.912 497.038 691.071 510.862C678.576 512.485 666.349 513.249 654.351 513.249V513.249Z" fill="#F0EBDE"/>
</g>
<g style="mix-blend-mode:hard-light" opacity="0.4">
<path d="M647.99 517.278C576.366 517.278 511.657 491.73 438.906 463.031C373.51 437.216 305.879 410.522 223.518 398.645C183.837 392.917 129.464 385.069 68.0995 388.506C-171.972 401.891 -447.751 336.569 -450.521 335.92L-449.891 333.285C-447.14 333.953 -171.743 399.18 67.9275 385.814C129.579 382.377 184.085 390.243 223.9 395.972C306.567 407.887 374.351 434.638 439.899 460.511C529.52 495.874 606.933 526.425 699.86 510.003C802.854 491.806 916.127 440.443 1016.08 395.113C1148 335.29 1261.94 283.621 1327.72 313.16C1350.65 323.451 1366.26 342.813 1375.43 372.352L1372.83 373.154C1363.91 344.398 1348.79 325.59 1326.61 315.642C1261.96 286.599 1148.54 338.039 1017.21 397.595C917.12 442.982 803.675 494.422 700.337 512.696C682.379 515.865 664.993 517.317 648.009 517.317L647.99 517.278Z" fill="#F0EBDE"/>
</g>
<g style="mix-blend-mode:hard-light" opacity="0.43">
<path d="M640.846 522.013C572.966 522.013 508.907 500.895 437.512 477.352C373.626 456.291 307.58 434.523 228.295 423.83C188.308 418.446 134.471 412.087 72.7621 410.77C-164.673 405.69 -440.261 337.619 -443.031 336.932L-442.343 334.182C-439.592 334.869 -164.291 402.865 72.8195 407.925C134.681 409.242 188.595 415.6 228.677 421.004C308.211 431.716 374.39 453.541 438.391 474.64C532.922 505.802 614.557 532.725 708.974 511.664C810.058 489.133 916.93 436.222 1011.21 389.537C1138.78 326.372 1248.95 271.839 1316.8 300.92C1343.16 312.224 1361.42 335.27 1372.62 371.378L1369.91 372.218C1358.98 336.951 1341.23 314.496 1315.67 303.536C1249.01 274.97 1139.39 329.237 1012.45 392.095C918.038 438.838 811.013 491.844 709.585 514.452C685.99 519.703 663.198 522.013 640.846 522.013V522.013Z" fill="#F0EBDE"/>
</g>
<g style="mix-blend-mode:hard-light" opacity="0.47">
<path d="M630.834 527.704C565.953 527.704 502.373 510.633 432.162 491.787C370.969 475.347 307.694 458.372 233.051 449.016C223.441 447.813 213.488 446.438 202.961 444.987C165.917 439.889 123.943 434.103 77.5183 433.034C-157.395 427.668 -432.888 338.822 -435.639 337.925L-434.722 335.118C-431.971 336.015 -156.879 424.709 77.5756 430.074C124.153 431.144 166.241 436.929 203.362 442.047C213.889 443.498 223.823 444.872 233.433 446.075C308.267 455.451 374.504 473.228 432.926 488.923C533.934 516.056 621.167 539.466 718.067 513.383C817.756 486.536 919.203 431.755 1008.71 383.446C1131.23 317.303 1237.03 260.173 1305.89 288.26C1335.5 300.347 1356.42 327.232 1369.83 370.443L1367 371.321C1353.88 328.989 1333.53 302.715 1304.78 290.991C1237.22 263.438 1131.97 320.244 1010.12 386.043C920.483 434.447 818.883 489.305 718.85 516.228C688.798 524.324 659.682 527.704 630.834 527.704V527.704Z" fill="#F0EBDE"/>
</g>
<g style="mix-blend-mode:hard-light" opacity="0.5">
<path d="M616.352 534.654C553.631 534.654 490.279 521.211 421.005 506.528C364.263 494.498 305.573 482.049 237.846 474.201C223.155 472.502 207.45 470.229 190.791 467.804C158.389 463.107 121.669 457.78 82.2179 455.317C-150.097 440.709 -425.437 339.968 -428.207 338.956L-427.137 336.053C-424.386 337.065 -149.467 437.654 82.4089 452.223C121.975 454.706 158.771 460.033 191.23 464.749C207.852 467.155 223.537 469.427 238.19 471.127C306.07 478.994 367.454 492.016 421.635 503.511C531.507 526.806 626.382 546.931 727.179 515.082C825.913 483.882 922.756 426.942 1008.21 376.724C1125.21 307.946 1226.26 248.544 1295.19 275.199C1327.76 287.802 1351.26 318.639 1367.04 369.507L1364.1 370.423C1348.62 320.529 1325.72 290.322 1294.08 278.083C1226.54 251.981 1126.09 311.02 1009.78 379.397C924.189 429.711 827.193 486.727 728.115 518.042C690.364 529.976 653.473 534.673 616.352 534.673V534.654Z" fill="#F0EBDE"/>
</g>
<g style="mix-blend-mode:hard-light" opacity="0.53">
<path d="M595.412 543.533C535.021 543.533 472.052 533.336 400.733 521.803C351.232 513.803 300.051 505.516 242.621 499.386C222.905 497.286 201.106 493.83 178.028 490.202C150.574 485.868 119.471 480.941 86.9356 477.581C-142.82 453.827 -417.987 341.094 -420.738 339.948L-419.516 336.989C-416.764 338.115 -142.017 450.677 87.2604 474.392C119.872 477.772 151.032 482.679 178.524 487.032C201.565 490.679 223.325 494.116 242.965 496.198C300.49 502.327 351.71 510.614 401.249 518.634C528.774 539.255 629.514 555.562 736.291 516.781C834.452 481.132 927.359 421.749 1009.34 369.373C1120.55 298.304 1216.59 236.915 1284.77 261.833C1319.96 274.703 1345.97 309.608 1364.25 368.552L1361.17 369.507C1343.21 311.593 1317.86 277.357 1283.67 264.85C1216.97 240.467 1121.56 301.454 1011.06 372.065C928.945 424.537 835.866 484.035 737.38 519.798C689.752 537.098 643.384 543.533 595.412 543.533V543.533Z" fill="#F0EBDE"/>
</g>
<g style="mix-blend-mode:hard-light" opacity="0.57">
<path d="M564.445 554.34C503.08 554.34 437.952 546.511 365.277 537.785C327.869 533.298 289.182 528.639 247.419 524.572C222.544 522.147 194.154 517.125 164.102 511.817C140.985 507.731 117.085 503.511 91.6567 499.845C-135.538 467.041 -410.534 342.221 -413.285 340.96L-411.891 337.924C-409.139 339.185 -134.583 463.795 92.1343 496.541C117.62 500.227 141.54 504.446 164.695 508.533C194.689 513.841 223.022 518.844 247.763 521.25C289.564 525.336 328.271 529.976 365.697 534.463C513.034 552.144 629.402 566.121 745.426 518.481C843.338 478.268 932.883 416.154 1011.86 361.353C1121.47 285.319 1208.03 225.268 1274.8 248.238C1312.23 261.127 1340.58 300.156 1361.5 367.597L1358.31 368.59C1337.73 302.237 1310.07 263.915 1273.71 251.408C1208.53 228.953 1118.28 291.602 1013.75 364.103C934.621 418.999 844.943 481.228 746.686 521.574C687.289 545.958 627.911 554.34 564.464 554.34H564.445Z" fill="#F0EBDE"/>
</g>
<g style="mix-blend-mode:hard-light" opacity="0.6">
<path d="M521.438 568.279C455.507 568.279 383.692 561.73 301.98 554.264C285.779 552.793 269.196 551.266 252.193 549.757C221.835 547.065 186.033 539.867 148.109 532.248C131.45 528.887 114.198 525.431 96.3353 522.109C-128.338 480.33 -403.104 343.347 -405.855 341.973L-404.308 338.879C-401.557 340.254 -127.23 477.027 96.9657 518.71C114.848 522.032 132.1 525.508 148.778 528.868C186.606 536.468 222.332 543.666 252.479 546.34C269.483 547.848 286.085 549.356 302.286 550.846C488.96 567.878 623.821 580.194 754.479 520.238C852.449 475.289 939.032 410.178 1015.41 352.723C1118.77 274.989 1200.41 213.601 1265.25 234.529C1304.47 247.188 1335.04 290.418 1358.69 366.7L1355.38 367.731C1332.1 292.614 1302.25 250.129 1264.18 237.832C1201.06 217.439 1120.05 278.369 1017.5 355.491C940.981 413.042 854.245 478.268 755.931 523.388C681.823 557.395 606.531 568.317 521.419 568.317L521.438 568.279Z" fill="#F0EBDE"/>
</g>
<g style="mix-blend-mode:hard-light" opacity="0.63">
<path d="M464.87 585.559C401.002 585.559 332.263 580.939 256.971 574.943C220.538 572.041 178.087 562.188 128.93 550.789C119.798 548.669 110.494 546.511 101.037 544.354C-121.172 493.696 -395.671 344.455 -398.422 342.946L-396.702 339.796C-393.951 341.304 -119.892 490.298 101.82 540.84C111.296 542.998 120.6 545.156 129.732 547.275C178.755 558.655 221.092 568.47 257.257 571.353C464.22 587.832 621.702 593.923 763.594 521.899C861.869 472.005 945.835 403.628 1019.92 343.309C1117.05 264.22 1193.76 201.743 1256.25 220.59C1297.38 233.001 1329.06 279.114 1355.9 365.688L1352.48 366.738C1326.39 282.57 1294.56 235.884 1255.2 224.007C1194.56 205.715 1118.49 267.638 1022.18 346.059C947.956 406.492 863.837 475.003 765.218 525.068C674.259 571.239 577.092 585.521 464.87 585.521V585.559Z" fill="#F0EBDE"/>
</g>
<g style="mix-blend-mode:hard-light" opacity="0.67">
<path d="M410.631 606.105C363.308 606.105 313.788 603.814 261.746 600.147C218.187 597.073 163.547 582.275 105.698 566.618C-114.104 507.139 -388.259 345.581 -391.01 343.958L-389.118 340.77C-386.386 342.393 -112.633 503.702 106.672 563.047C164.331 578.647 218.799 593.388 262.014 596.443C464.392 610.764 628.694 603.871 772.687 523.636C871.479 468.587 953.114 396.697 1025.12 333.265C1116.1 253.126 1187.99 189.848 1247.79 206.632C1289.86 218.451 1323.33 268.688 1353.11 364.752L1349.58 365.84C1320.19 271.094 1287.53 221.621 1246.79 210.183C1188.93 193.934 1117.72 256.64 1027.58 336.034C955.425 399.58 873.657 471.623 774.502 526.863C666.808 586.858 547.995 606.086 410.631 606.086V606.105Z" fill="#F0EBDE"/>
</g>
<g style="mix-blend-mode:hard-light" opacity="0.7">
<path d="M367.798 628.617C335.549 628.617 301.848 627.51 266.542 625.314C225.237 622.755 174.246 608.893 110.398 588.863C-107.035 520.638 -380.807 346.689 -383.559 344.951L-381.495 341.724C-378.763 343.462 -105.411 517.144 111.544 585.216C175.125 605.169 225.849 618.974 266.771 621.514C490.623 635.396 649.461 605.742 781.781 525.374C881.299 464.921 964.252 385.966 1030.91 322.534C1115.87 241.67 1182.96 177.818 1239.9 192.616C1282.44 203.691 1317.54 258.091 1350.34 363.835L1346.67 364.962C1314.31 260.592 1280.07 207.013 1238.92 196.301C1184.05 182.038 1117.63 245.259 1033.55 325.303C966.755 388.868 883.649 467.976 783.768 528.639C671.642 596.729 540.716 628.617 367.798 628.617V628.617Z" fill="#F0EBDE"/>
</g>
<g style="mix-blend-mode:hard-light" opacity="0.73">
<path d="M342.961 652.485C319.692 652.485 295.83 651.836 271.318 650.518C233.892 648.533 185.709 636.369 115.078 611.127C-100.081 534.195 -373.395 347.815 -376.127 345.944L-373.892 342.679C-371.16 344.55 -98.2657 530.644 116.416 607.384C186.664 632.512 234.522 644.58 271.547 646.566C484.796 657.927 649.824 619.967 790.894 527.092C891.31 460.988 972.161 377.851 1037.14 311.059C1119.29 226.604 1178.65 165.56 1232.56 178.486C1275.76 188.836 1311.22 245.699 1347.57 362.862L1343.79 364.026C1308.39 249.918 1272.76 192.177 1231.64 182.324C1179.93 169.932 1121.22 230.27 1039.96 313.808C974.855 380.734 893.851 464.024 793.072 530.377C667.477 613.055 523.082 652.466 342.981 652.466L342.961 652.485Z" fill="#F0EBDE"/>
</g>
<g style="mix-blend-mode:hard-light" opacity="0.77">
<path d="M324.563 676.774C308.63 676.774 292.467 676.411 276.113 675.704C237.35 673.909 186.225 660.066 119.759 633.353C-93.1839 547.791 -365.963 348.923 -368.695 346.918L-366.288 343.634C-363.556 345.62 -91.197 544.201 121.268 629.572C187.295 656.113 237.999 669.861 276.285 671.618C480.898 680.497 652.193 633.773 799.969 528.811C901.416 456.749 980.281 369.22 1043.63 298.896C1119.84 214.308 1174.88 153.187 1225.72 164.357C1268.59 173.771 1305.29 234.701 1344.76 361.926L1340.87 363.129C1301.89 237.469 1266.11 177.398 1224.86 168.329C1176.37 157.693 1121.96 218.05 1046.69 301.626C983.204 372.104 904.167 459.823 802.357 532.134C665.623 629.248 508.925 676.754 324.582 676.754L324.563 676.774Z" fill="#F0EBDE"/>
</g>
<g style="mix-blend-mode:hard-light" opacity="0.8">
<path d="M314.8 701.5C303.567 701.5 292.257 701.29 280.889 700.889C178.162 697.166 8.96969 601.331 -114.868 521.593C-248.889 435.306 -360.156 348.77 -361.264 347.911L-358.685 344.608C-357.576 345.467 -246.443 431.907 -112.576 518.099C64.3738 632.035 200.477 693.786 281.042 696.708C292.696 697.128 304.255 697.338 315.603 697.338C707.253 697.338 912.936 450.811 1050.4 286.083C1120.84 201.667 1171.73 140.699 1219.42 150.227C1261.58 158.648 1299.37 223.664 1341.97 361.01L1337.96 362.251C1295.87 226.547 1259.06 162.428 1218.59 154.332C1173.35 145.301 1123.13 205.467 1053.62 288.776C982.86 373.574 894.805 479.089 771.12 563.124C703.89 608.797 632.056 643.53 557.623 666.367C481.49 689.738 399.951 701.52 314.8 701.52V701.5Z" fill="#F0EBDE"/>
</g>
</g>
</g>
<defs>
<filter id="filter0_dd_92_386" x="0" y="0" width="1280" height="579" filterUnits="userSpaceOnUse" color-interpolation-filters="sRGB">
<feFlood flood-opacity="0" result="BackgroundImageFix"/>
<feColorMatrix in="SourceAlpha" type="matrix" values="0 0 0 0 0 0 0 0 0 0 0 0 0 0 0 0 0 0 127 0" result="hardAlpha"/>
<feOffset dy="8"/>
<feGaussianBlur stdDeviation="8"/>
<feColorMatrix type="matrix" values="0 0 0 0 0 0 0 0 0 0 0 0 0 0 0 0 0 0 0.08 0"/>
<feBlend mode="normal" in2="BackgroundImageFix" result="effect1_dropShadow_92_386"/>
<feColorMatrix in="SourceAlpha" type="matrix" values="0 0 0 0 0 0 0 0 0 0 0 0 0 0 0 0 0 0 127 0" result="hardAlpha"/>
<feOffset/>
<feGaussianBlur stdDeviation="2"/>
<feColorMatrix type="matrix" values="0 0 0 0 0 0 0 0 0 0 0 0 0 0 0 0 0 0 0.04 0"/>
<feBlend mode="normal" in2="effect1_dropShadow_92_386" result="effect2_dropShadow_92_386"/>
<feBlend mode="normal" in="SourceGraphic" in2="effect2_dropShadow_92_386" result="shape"/>
</filter>
<linearGradient id="paint0_linear_92_386" x1="483" y1="396.831" x2="1248.03" y2="390.571" gradientUnits="userSpaceOnUse">
<stop offset="0.0364276" stop-color="#133629"/>
<stop offset="0.315743" stop-color="#426D5B"/>
</linearGradient>
<clipPath id="clip0_92_386">
<rect width="1248" height="547" fill="white" transform="translate(16 8)"/>
</clipPath>
</defs>
</svg>
