<svg width="12" height="12" viewBox="0 0 12 12" fill="none" xmlns="http://www.w3.org/2000/svg">
<rect x="5.25" y="5.25" width="1.5" height="3.75" rx="0.75" fill="#B2B5B2"/>
<path d="M6.00005 2.925C6.45568 2.925 6.82505 3.29437 6.82505 3.75C6.82505 4.20564 6.45568 4.575 6.00005 4.575C5.54441 4.575 5.17505 4.20564 5.17505 3.75C5.17505 3.29437 5.54441 2.925 6.00005 2.925Z" fill="#B2B5B2"/>
<path fill-rule="evenodd" clip-rule="evenodd" d="M11.25 6C11.25 8.8995 8.8995 11.25 6 11.25C3.10051 11.25 0.75 8.8995 0.75 6C0.75 3.10051 3.10051 0.75 6 0.75C8.8995 0.75 11.25 3.10051 11.25 6ZM2.25 6C2.25 8.07107 3.92893 9.75 6 9.75C8.07107 9.75 9.75 8.07107 9.75 6C9.75 3.92893 8.07107 2.25 6 2.25C3.92893 2.25 2.25 3.92893 2.25 6Z" fill="#B2B5B2"/>
</svg>