<svg width="36" height="36" viewBox="0 0 36 36" fill="none" xmlns="http://www.w3.org/2000/svg">
  <path fill-rule="evenodd" clip-rule="evenodd" d="M27 28.4949C27 29.3229 26.328 29.9949 25.5 29.9949H10.5C9.672 29.9949 9 29.3229 9 28.4949V17.9949C9 17.1669 9.672 16.4949 10.5 16.4949H25.5C26.328 16.4949 27 17.1669 27 17.9949V28.4949ZM27.006 13.7739V12.0009C27.006 7.0374 22.968 2.9994 18.006 2.9994C14.3805 2.9994 11.127 5.1579 9.7155 8.4969C9.393 9.2604 9.7485 10.1409 10.512 10.4634C11.274 10.7844 12.156 10.4274 12.477 9.6654C13.419 7.4394 15.5895 5.9994 18.006 5.9994C21.315 5.9994 24.006 8.6919 24.006 12.0009V13.4949H10.5C8.019 13.4949 6 15.5139 6 17.9949V28.4949C6 30.9759 8.019 32.9949 10.5 32.9949H25.5C27.981 32.9949 30 30.9759 30 28.4949V17.9949C30 16.0434 28.7445 14.3964 27.006 13.7739Z" fill="#001428"/>
  <path fill-rule="evenodd" clip-rule="evenodd" d="M20.25 21.7406C20.25 20.4971 19.242 19.4906 18 19.4906C16.758 19.4906 15.75 20.4971 15.75 21.7406C15.75 22.4051 16.044 22.9976 16.503 23.4086V25.4845C16.503 26.3155 17.1765 26.989 18.009 26.989C18.84 26.989 19.5135 26.3155 19.5135 25.4845V23.3966C19.9635 22.9841 20.25 22.3976 20.25 21.7406Z" fill="#001428"/>
</svg>