<svg width="36" height="36" viewBox="0 0 36 36" fill="none" xmlns="http://www.w3.org/2000/svg">
  <ellipse cx="17.7722" cy="18" rx="17.7722" ry="18" fill="#E8E7E6"/>
  <path d="M15.2722 22V14C15.2722 12.9 16.1622 12 17.2722 12H26.2722V11C26.2722 9.9 25.3722 9 24.2722 9H10.2722C9.16216 9 8.27216 9.9 8.27216 11V25C8.27216 26.1 9.16216 27 10.2722 27H24.2722C25.3722 27 26.2722 26.1 26.2722 25V24H17.2722C16.1622 24 15.2722 23.1 15.2722 22ZM18.2722 14C17.7222 14 17.2722 14.45 17.2722 15V21C17.2722 21.55 17.7222 22 18.2722 22H27.2722V14H18.2722ZM21.2722 19.5C20.4422 19.5 19.7722 18.83 19.7722 18C19.7722 17.17 20.4422 16.5 21.2722 16.5C22.1022 16.5 22.7722 17.17 22.7722 18C22.7722 18.83 22.1022 19.5 21.2722 19.5Z" fill="#B2B5B2"/>
</svg>